<!DOCTYPE svg PUBLIC "-//W3C//DTD SVG 1.1//EN" "http://www.w3.org/Graphics/SVG/1.1/DTD/svg11.dtd">
<!-- Uploaded to: SVG Repo, www.svgrepo.com, Transformed by: SVG Repo Mixer Tools -->
<svg fill="#4a4a4a" height="64px" width="64px" version="1.1" id="Layer_1" xmlns="http://www.w3.org/2000/svg" xmlns:xlink="http://www.w3.org/1999/xlink" viewBox="0 0 512.15 512.15" xml:space="preserve">
<g id="SVGRepo_bgCarrier" stroke-width="0"/>
<g id="SVGRepo_tracerCarrier" stroke-linecap="round" stroke-linejoin="round"/>
<g id="SVGRepo_iconCarrier"> <g> <g> <path d="M491.253,2.95c-0.4-1.2-1.6-2.4-2.8-2.8c-1.2-0.4-2.8,0-4,1.2l-284,284c-0.4,0.4-0.4,0.4-0.4,0.8c-0.4,0-0.8,0.4-0.8,0.4 l-172.8,172.8c-6,6-9.2,13.6-9.2,22c0,8.4,3.2,16,8.8,22c6,5.6,14,8.8,22,8.8s15.2-2.8,20.8-8c0.4,0,1.2-0.4,1.6-0.8l171.2-171.2 l59.2,59.2c0.8,0.8,2,1.2,2.8,1.2s2-0.4,2.8-1.2c118.4-118.4,162.4-217.2,178.4-279.6C502.453,43.75,491.653,4.55,491.253,2.95z M66.053,496.55c-0.4,0-0.8,0.4-1.2,0.8c-4.4,4.4-10,6.8-16.4,6.8c-6,0-12-2.4-16.4-6.8c-4.4-4.4-6.8-10-6.8-16.4 c0-6,2.4-11.6,6.8-16l171.2-171.2l32.8,32.8L66.053,496.55z M476.853,110.55c-28.4,108.8-109.2,207.6-173.2,272.4l-94.8-94.8 l276-276C487.253,26.15,490.053,60.55,476.853,110.55z"/> </g> </g> <g> <g> <path d="M471.653,88.55c-2-0.4-4.4,0.8-4.8,3.2c-3.2,15.6-8,32-14,48.4c-0.4,2.4,0.4,4.8,2.8,5.2c0.4,0,0.8,0.4,1.2,0.4 c1.6,0,3.2-0.8,3.6-2.8c6.4-16.8,11.2-33.6,14.4-49.6C475.253,91.35,474.053,88.95,471.653,88.55z"/> </g> </g> <g> <g> <path d="M476.453,41.75c-2.4,0-4,1.6-4,4c0,8-0.8,16.4-2,24.8c0,2.4,1.6,4.4,3.6,4.4h0.4c2,0,3.6-1.6,4-3.6 c1.2-8.8,1.6-17.6,2-25.6C480.453,43.35,478.853,41.75,476.453,41.75z"/> </g> </g> </g>
</svg>