<!DOCTYPE svg PUBLIC "-//W3C//DTD SVG 1.1//EN" "http://www.w3.org/Graphics/SVG/1.1/DTD/svg11.dtd">
<!-- Uploaded to: SVG Repo, www.svgrepo.com, Transformed by: SVG Repo Mixer Tools -->
<svg fill="#4a4a4a" height="64px" width="64px" version="1.1" id="Layer_1" xmlns="http://www.w3.org/2000/svg" xmlns:xlink="http://www.w3.org/1999/xlink" viewBox="0 0 512 512" xml:space="preserve">
<g id="SVGRepo_bgCarrier" stroke-width="0"/>
<g id="SVGRepo_tracerCarrier" stroke-linecap="round" stroke-linejoin="round"/>
<g id="SVGRepo_iconCarrier"> <g> <g> <path d="M396.36,112H115.64C91.576,112,72,131.788,72,156.116v235.768C72,416.212,91.576,436,115.64,436h280.72 c24.064,0,43.64-19.788,43.64-44.12V156.116C440,131.788,420.424,112,396.36,112z M432,391.88 c0,19.912-15.988,36.116-35.64,36.116H115.64c-19.652,0-35.64-16.2-35.64-36.116V156.116C80,136.204,95.988,120,115.64,120h280.72 c19.652,0,35.64,16.2,35.64,36.116V391.88z"/> </g> </g> <g> <g> <path d="M58.412,220H14.404C11.64,220,8,217.348,8,215.784v-7.668c0-1.56,3.576-4.116,6.404-4.116H76c2.208,0,4-1.788,4-4 c0-2.212-1.792-4-4-4H14.404C7.88,196,0,201.408,0,208.116v7.668C0,222.552,7.88,228,14.404,228h44.008 C66.916,228,72,236.984,72,245.668c0,2.212,1.792,4,4,4s4-1.788,4-4C80,233.052,71.924,220,58.412,220z"/> </g> </g> <g> <g> <path d="M501.756,196H436c-2.208,0-4,1.788-4,4c0,2.212,1.792,4,4,4h65.76c1.492,0,2.244,1.384,2.244,4.116v7.668 c0,1.924-0.392,4.216-2.244,4.216h-44.012C444.512,220,432,232.472,432,245.668c0,2.212,1.792,4,4,4s4-1.788,3.996-4 c0-8.752,8.956-17.668,17.748-17.668h44.012c6.128,0,10.244-4.912,10.244-12.216v-7.668C512,200.756,507.98,196,501.756,196z"/> </g> </g> <g> <g> <path d="M436,180H132c-2.208,0-4,1.788-4,4c0,2.212,1.792,4,4,4h304c2.208,0,4-1.788,4-4C440,181.788,438.208,180,436,180z"/> </g> </g> <g> <g> <path d="M436,164H76c-2.208,0-4,1.788-4,4c0,2.212,1.792,4,4,4h360c2.208,0,4-1.788,4-4C440,165.788,438.208,164,436,164z"/> </g> </g> <g> <g> <path d="M100,180H76c-2.208,0-4,1.788-4,4c0,2.212,1.792,4,4,4h24c2.208,0,4-1.788,4-4C104,181.788,102.208,180,100,180z"/> </g> </g> <g> <g> <path d="M278,76h-39.844c-6.616,0-12,5.384-12,12c0,6.616,5.384,12,12,12H278c6.616,0,12-5.384,12-12 C290,81.384,284.616,76,278,76z M278,92h-39.844c-2.168,0-4-1.832-4-4c0-2.168,1.832-4,4-4H278c2.168,0,4,1.832,4,4 C282,90.168,280.168,92,278,92z"/> </g> </g> <g> <g> <path d="M248,92c-2.208,0-4,1.788-4,4v20c0,2.212,1.792,4,4,4s4-1.788,4-4V96C252,93.788,250.208,92,248,92z"/> </g> </g> <g> <g> <path d="M264,92c-2.208,0-4,1.788-4,4v20c0,2.212,1.792,4,4,4s4-1.788,4-4V96C268,93.788,266.208,92,264,92z"/> </g> </g> </g>
</svg>