<?xml version="1.0" encoding="utf-8"?>
<!-- Generator: Adobe Illustrator 19.2.1, SVG Export Plug-In . SVG Version: 6.00 Build 0)  -->
<svg version="1.1" id="Layer_1" xmlns="http://www.w3.org/2000/svg" xmlns:xlink="http://www.w3.org/1999/xlink" x="0px" y="0px"
	 viewBox="0 0 112 93" style="enable-background:new 0 0 112 93;" xml:space="preserve">
<style type="text/css">
	.st0{fill:#575757;}
</style>
<path class="st0" d="M56,71.7c-13.9,0-25.2-11.3-25.2-25.2S42.1,21.3,56,21.3s25.2,11.3,25.2,25.2l0,0C81.2,60.4,69.9,71.7,56,71.7z
	 M56,25.5c-11.6,0-21,9.4-21,21c0,11.6,9.4,21,21,21c11.6,0,21-9.4,21-21c0,0,0,0,0,0C77,34.9,67.6,25.5,56,25.5z M53.9,57
	c-0.6,0-1.1-0.2-1.5-0.6L44,48c-0.8-0.8-0.8-2.1,0-3s2.1-0.8,3,0l6.7,6.7l11.1-14.8c0.7-0.9,2-1.1,2.9-0.4c0.9,0.7,1.1,2,0.4,2.9
	l0,0L55.6,56.2c-0.4,0.5-0.9,0.8-1.5,0.8L53.9,57z"/>
</svg>
