<?xml version="1.0" encoding="utf-8"?>
<!-- Generator: Adobe Illustrator 19.2.1, SVG Export Plug-In . SVG Version: 6.00 Build 0)  -->
<svg version="1.1" id="Layer_1" xmlns="http://www.w3.org/2000/svg" xmlns:xlink="http://www.w3.org/1999/xlink" x="0px" y="0px"
	 viewBox="0 0 112 93" style="enable-background:new 0 0 112 93;" xml:space="preserve">
<style type="text/css">
	.st0{fill:#585756;}
</style>
<g>
	<path class="st0" d="M15,44.9l9-22.7h3.6l8.9,22.7h-4.7l-2.1-5.7h-8l-2.1,5.7H15z M25.8,26.9l-3.3,9.2h6.4L25.8,26.9z"/>
	<path class="st0" d="M54.7,41.1H50v-6h6.8c0.3,0,0.6,0.1,0.9,0.2c1.2-1.5,2.6-2.8,4.1-3.9c0.1-0.1,0.2-0.2,0.2-0.4
		c0.6-1,0.8-2,0.8-3.1c0-0.7-0.1-1.4-0.4-2.1c-0.2-0.7-0.6-1.3-1-1.9c-0.4-0.5-1-1-1.6-1.3c-0.6-0.3-1.4-0.5-2.1-0.5H45.6v22.7h8.4
		C54.1,43.6,54.3,42.3,54.7,41.1z M50,25.9h6.1c0.7,0,1.3,0.3,1.8,0.8c0.5,0.5,0.7,1.2,0.7,2.1c0,0.9-0.3,1.6-0.8,2.1
		c-0.5,0.5-1.2,0.8-1.9,0.8H50V25.9z"/>
	<path class="st0" d="M96.2,67c0,0-0.1-0.1-0.1-0.1l-11-11.2c1.8-2.6,2.9-5.7,2.9-9.1c0-8.7-7.1-15.8-15.8-15.8
		c-8.7,0-15.8,7.1-15.8,15.8c0,8.7,7.1,15.8,15.8,15.8c3.7,0,7-1.3,9.7-3.3L93,70.2c0,0,0.1,0.1,0.2,0.1c0.4,0.4,1,0.7,1.6,0.7
		c1.3,0,2.3-1.1,2.2-2.3C97,68,96.7,67.4,96.2,67z M72.1,58.4c-6.5,0-11.8-5.3-11.8-11.8c0-6.5,5.3-11.8,11.8-11.8
		C78.7,34.7,84,40,84,46.5C84,53,78.7,58.4,72.1,58.4z"/>
	<g>
		<path class="st0" d="M89.8,37.7c-0.2,0.6-0.5,1.1-0.9,1.5c0.6,1.3,1,2.7,1.3,4.2c0.6-0.4,1.3-0.8,1.8-1.4c0.7-0.7,1.1-1.4,1.5-2.3
			L89.8,37.7z"/>
		<path class="st0" d="M79,29.5c0.2-0.4,0.4-0.8,0.7-1.2c0.5-0.7,1.2-1.3,2-1.7c0.8-0.4,1.7-0.7,2.8-0.7c0.5,0,1,0.1,1.5,0.2
			c0.5,0.1,1,0.3,1.5,0.6c0.5,0.3,0.9,0.6,1.3,1c0.4,0.4,0.7,1,1,1.6l3.4-2.3c-0.7-1.5-1.8-2.7-3.3-3.6c-1.5-0.9-3.2-1.4-5.3-1.4
			c-1.7,0-3.3,0.3-4.6,1c-1.3,0.7-2.5,1.5-3.4,2.6c-0.7,0.9-1.3,1.8-1.8,2.8C76.2,28.6,77.6,29,79,29.5z"/>
	</g>
</g>
</svg>
