<?xml version="1.0" encoding="utf-8"?>
<!-- Generator: Adobe Illustrator 19.2.1, SVG Export Plug-In . SVG Version: 6.00 Build 0)  -->
<svg version="1.1" id="Layer_1" xmlns="http://www.w3.org/2000/svg" xmlns:xlink="http://www.w3.org/1999/xlink" x="0px" y="0px"
	 viewBox="0 0 112 93" style="enable-background:new 0 0 112 93;" xml:space="preserve">
<style type="text/css">
	.st0{fill:#585755;}
</style>
<path class="st0" d="M105.2,39.9l-7.5-7.7c-0.8-0.8-2-0.8-2.8,0c-0.8,0.8-0.8,2,0,2.8l4,4.1h-3.4c-14.7,0-18.4,5-20.9,8.3
	c-1.4,1.9-2,2.5-3.6,2.5c-2.3,0-3.2-2.9-4.4-7.6c-1.3-5.1-2.9-11.4-9.2-11.4c-6.4,0-8.3,8.4-10.1,16.5c-1.4,6.3-3,13.4-6.2,13.4
	c-3,0-4.8-9.4-6.3-16.9c-2.3-11.8-5-25.2-14.1-25.2c-2,0-3.8,0.8-5.5,2.5c-9.4,9.6-8.9,47-8.8,51.3c0,1.1,0.9,2,2,2c0,0,0,0,0,0
	c1.1,0,2-0.9,2-2C10,61.3,11,31,17.9,23.9c0.8-0.9,1.7-1.3,2.6-1.3c5.8,0,8.2,11.7,10.2,22c2.1,10.8,4,20.1,10.2,20.1
	c6.4,0,8.3-8.4,10.1-16.5c1.4-6.3,3-13.4,6.2-13.4c3,0,4,3.2,5.3,8.4c1.2,4.7,2.7,10.6,8.3,10.6c3.7,0,5.4-2.2,6.8-4.2
	c2.2-3,5-6.7,17.7-6.7h3.8l-4.4,4.5c-0.8,0.8-0.8,2.1,0,2.8c0.4,0.4,0.9,0.6,1.4,0.6c0.5,0,1-0.2,1.4-0.6l7.5-7.7
	C106,41.9,106,40.6,105.2,39.9z"/>
</svg>
