<?xml version="1.0" encoding="iso-8859-1"?>
<!-- Uploaded to: SVG Repo, www.svgrepo.com, Generator: SVG Repo Mixer Tools -->
<svg fill="#000000" height="800px" width="800px" version="1.1" id="Layer_1" xmlns="http://www.w3.org/2000/svg" xmlns:xlink="http://www.w3.org/1999/xlink" 
	 viewBox="0 0 511.999 511.999" xml:space="preserve">
<g>
	<g>
		<path d="M405.987,251.359c-14.376-28.848-29.242-58.677-29.242-130.613C376.746,54.167,322.579,0,255.999,0
			S135.253,54.167,135.253,120.746c0,71.936-14.865,101.766-29.242,130.613c-11.96,23.999-23.257,46.669-23.257,87.396
			c0,95.527,77.717,173.244,173.244,173.244s173.244-77.717,173.244-173.244C429.244,298.029,417.947,275.359,405.987,251.359z
			 M255.999,480.501c-78.158,0-141.745-63.587-141.745-141.745c0-33.314,8.804-50.981,19.95-73.347
			c14.501-29.098,32.548-65.312,32.548-144.661c0-49.211,40.036-89.247,89.247-89.247c49.211,0,89.247,40.036,89.247,89.247
			c0,79.349,18.047,115.563,32.548,144.661c11.146,22.367,19.95,40.034,19.95,73.347
			C397.745,416.914,334.159,480.501,255.999,480.501z"/>
	</g>
</g>
<g>
	<g>
		<path d="M255.999,248.234c-54.364,0-98.592,44.229-98.592,98.592c0,54.363,44.229,98.592,98.592,98.592
			s98.592-44.229,98.592-98.592C354.591,292.463,310.364,248.234,255.999,248.234z M255.999,413.92
			c-36.996,0-67.093-30.098-67.093-67.093c0-36.994,30.098-67.093,67.093-67.093c36.994,0,67.093,30.098,67.093,67.093
			C323.092,383.821,292.995,413.92,255.999,413.92z"/>
	</g>
</g>
</svg>