<?xml version="1.0" encoding="iso-8859-1"?>
<!-- Uploaded to: SVG Repo, www.svgrepo.com, Generator: SVG Repo Mixer Tools -->
<svg fill="#000000" height="800px" width="800px" version="1.1" id="Layer_1" xmlns="http://www.w3.org/2000/svg" xmlns:xlink="http://www.w3.org/1999/xlink" 
	 viewBox="0 0 512 512" xml:space="preserve">
<g>
	<g>
		<path d="M480.201,31.805C439.33-9.066,301.065-17.08,236.997,47.004c-17.78,17.78-22.839,46.434-27.741,74.149
			c-4.723,26.749-9.614,54.406-25.453,70.25c-10.979,10.974-35.078,14.527-58.379,17.964c-29.295,4.319-59.576,8.78-78.427,27.636
			C-17.07,301.082-9.062,439.341,31.8,480.202C51.532,499.929,93.957,512,139.783,512c49.09,0,102.074-13.855,135.21-46.996
			c18.851-18.851,23.322-49.132,27.636-78.416c3.443-23.306,7.001-47.411,17.969-58.384c15.838-15.838,43.496-20.73,70.25-25.458
			c27.71-4.896,56.364-9.961,74.144-27.741C529.071,210.931,521.063,72.672,480.201,31.805z M449.794,259.806
			c-12.994,12.989-37.135,17.256-62.693,21.774c-30.029,5.306-61.077,10.795-81.701,31.425
			c-16.007,16.001-19.901,42.446-24.036,70.444c-3.81,25.826-7.746,52.533-21.569,66.356
			c-53.603,53.609-178.433,49.552-212.797,15.198C12.655,430.655,8.593,305.81,62.196,252.202
			c13.823-13.823,40.536-17.759,66.356-21.57c28.004-4.13,54.443-8.03,70.45-24.031c20.635-20.63,26.114-51.677,31.425-81.706
			c4.513-25.558,8.775-49.704,21.769-62.693c28.518-28.518,77.198-40.714,121.691-40.714c39.14,0,75.036,9.441,91.116,25.516
			C499.346,81.352,503.408,206.197,449.794,259.806z"/>
	</g>
</g>
<g>
	<g>
		<path d="M58.911,376.91c-3.149-4.125-1.816-25.327,2.75-43.627c1.428-5.757-2.078-11.593-7.83-13.031
			c-5.773-1.422-11.598,2.063-13.026,7.82c-3.684,14.705-10.758,50.365,2.823,63.947c2.11,2.11,4.891,3.17,7.662,3.17
			c2.75,0,5.49-1.039,7.578-3.123C63.068,387.868,63.109,381.104,58.911,376.91z"/>
	</g>
</g>
<g>
	<g>
		<path d="M180.203,427.412c-4.083,0-7.63,2.272-9.446,5.615c-7.148,2.797-31.593,5.127-55.041,5.133
			c-5.941,0-10.748,4.812-10.748,10.748s4.807,10.748,10.748,10.748c75.236,0,75.236-13.986,75.236-21.496
			C190.951,432.225,186.144,427.412,180.203,427.412z"/>
	</g>
</g>
<g>
	<g>
		<path d="M180.203,362.924c-5.941,0-10.748,4.812-10.748,10.748c0,8.381-20.614,18.221-34.858,21.821
			c-5.752,1.449-9.247,7.29-7.809,13.041c1.228,4.876,5.605,8.129,10.412,8.129c0.861,0,1.742-0.1,2.614-0.32
			c8.544-2.136,51.137-14.228,51.137-42.672C190.951,367.737,186.144,362.924,180.203,362.924z"/>
	</g>
</g>
<g>
	<g>
		<path d="M168.899,316.532c-1.879-5.626-7.914-8.68-13.592-6.796c-14.548,4.849-24.057,12.48-28.287,22.682
			c-5.153,12.443-0.021,23.359,0.577,24.566c1.889,3.768,5.678,5.941,9.625,5.941c1.616,0,3.254-0.362,4.797-1.134
			c5.311-2.656,7.463-9.111,4.807-14.422c-0.021-0.031-1.354-3.327,0.053-6.728c1.69-4.067,7.095-7.798,15.23-10.512
			C167.734,328.251,170.778,322.163,168.899,316.532z"/>
	</g>
</g>
<g>
	<g>
		<path d="M140.612,266.744c-32.485-10.843-50.843,5.82-56.007,16.138c-2.656,5.311-0.504,11.766,4.807,14.422
			c1.543,0.771,3.18,1.134,4.797,1.134c3.946,0,7.736-2.173,9.625-5.941c0.063-0.131,6.833-13.089,29.977-5.358
			c5.689,1.889,11.714-1.176,13.592-6.796C149.282,274.71,146.238,268.623,140.612,266.744z"/>
	</g>
</g>
<g>
	<g>
		<path d="M244.691,309.185c-5.941,0-10.748,4.812-10.748,10.748c0,48.728-7.295,56.579-7.599,56.889
			c-4.198,4.198-4.198,11,0,15.198c2.099,2.099,4.849,3.149,7.599,3.149s5.5-1.049,7.599-3.149
			c5.962-5.967,13.897-19.927,13.897-72.087C255.439,313.997,250.632,309.185,244.691,309.185z"/>
	</g>
</g>
<g>
	<g>
		<path d="M233.943,223.201c-5.941,0-10.748,4.812-10.748,10.748c0,10.103-21.118,10.743-21.527,10.748
			c-5.92,0.016-10.716,4.823-10.716,10.748c0,5.936,4.807,10.748,10.748,10.748c14.873,0,42.992-6.738,42.992-32.244
			C244.691,228.013,239.884,223.201,233.943,223.201z"/>
	</g>
</g>
<g>
	<g>
		<path d="M309.179,223.201c-28.444,0-40.536,42.593-42.666,51.132c-1.438,5.757,2.057,11.582,7.809,13.026
			c0.871,0.22,1.753,0.325,2.624,0.325c4.807,0,9.184-3.254,10.412-8.124c3.6-14.248,13.435-34.863,21.821-34.863
			c5.941,0,10.748-4.812,10.748-10.748S315.12,223.201,309.179,223.201z"/>
	</g>
</g>
<g>
	<g>
		<path d="M306.114,161.951c-3.149-4.125-1.816-25.327,2.75-43.627c1.428-5.757-2.078-11.593-7.83-13.031
			c-5.763-1.443-11.588,2.063-13.026,7.82c-3.684,14.705-10.758,50.365,2.823,63.947c2.11,2.11,4.891,3.17,7.662,3.17
			c2.75,0,5.49-1.039,7.578-3.123C310.271,172.909,310.312,166.144,306.114,161.951z"/>
	</g>
</g>
<g>
	<g>
		<path d="M384.415,94.225c-25.222,0-48.072,22.12-50.591,24.645c-4.188,4.193-4.188,10.979-0.01,15.177
			c2.099,2.104,4.86,3.159,7.61,3.159s5.49-1.039,7.589-3.123c5.143-5.106,21.538-18.363,35.403-18.363
			c5.941,0,10.748-4.812,10.748-10.748S390.355,94.225,384.415,94.225z"/>
	</g>
</g>
<g>
	<g>
		<path d="M398.563,51.785c-19.638-6.555-32.37-7.032-40.053-1.485c-5.878,4.235-6.34,10.013-6.34,11.682
			c0,5.936,4.807,10.748,10.748,10.748c3.716,0,7.001-1.889,8.922-4.76c2.697-0.042,8.344,0.352,19.922,4.209
			c1.134,0.378,2.277,0.556,3.401,0.556c4.503,0,8.691-2.85,10.192-7.353C407.233,59.751,404.189,53.663,398.563,51.785z"/>
	</g>
</g>
<g>
	<g>
		<path d="M459.661,94.231c-0.01,0-0.01,0-0.01,0c-5.93,0-10.737,4.807-10.748,10.732c0,0.299-0.157,30.029-9.614,48.943
			c-2.656,5.311-0.504,11.766,4.807,14.422c1.543,0.771,3.18,1.134,4.797,1.134c3.946,0,7.736-2.173,9.625-5.941
			c11.745-23.496,11.882-57.125,11.882-58.547C470.398,99.043,465.591,94.236,459.661,94.231z"/>
	</g>
</g>
<g>
	<g>
		<path d="M435.005,204.854c-4.198-4.198-11-4.198-15.198,0c-0.168,0.157-16.437,15.807-30.585,8.733
			c-5.311-2.65-11.756-0.504-14.422,4.807c-2.656,5.311-0.504,11.766,4.807,14.422c6.004,3.002,11.924,4.188,17.529,4.188
			c20.614,0,37.009-16.085,37.87-16.951C439.204,215.854,439.204,209.052,435.005,204.854z"/>
	</g>
</g>
<g>
	<g>
		<path d="M395.467,137.391c-5.71-0.042-10.706,4.477-11.042,10.286c-0.042,0.583-1.113,14.406-24.907,22.336
			c-5.626,1.879-8.67,7.966-6.791,13.598c1.501,4.503,5.689,7.353,10.192,7.353c1.123,0,2.267-0.179,3.401-0.556
			c39.14-13.046,39.591-41.244,39.591-42.441C405.91,142.15,401.282,137.558,395.467,137.391z"/>
	</g>
</g>
</svg>