<svg xmlns="http://www.w3.org/2000/svg" height="40" viewBox="0 -960 960 960" width="40"><path d="M214-175.333q-44.063-45-69.031-104Q120-338.333 120-400.667q0-69.666 25-130.5Q170-592 222-644q35-35 86.833-59.333 51.834-24.334 122.334-38.167 70.5-13.833 160-17.167 89.5-3.333 199.5 4.667 8 107.333 5.333 196.667-2.667 89.333-16.167 160.666-13.5 71.334-38 124.709t-60.5 89.291Q629.667-131 570.5-105.5T446-80q-67.667 0-126.667-24.167-59-24.166-105.333-71.166Zm106-5.333q26.333 17 58.5 25.5 32.166 8.5 67.449 8.5 50.718 0 99.051-20.834 48.334-20.833 89.334-62.5 24-24 42.833-63.833Q696-333.667 708.5-390.834t17.5-132q5-74.833.667-169.166-79.001-2-149.168 1.166-70.167 3.167-128.5 14.167t-104 30q-45.666 19-74.666 48.667-43 43.666-63.333 90.333Q186.666-461 186.666-414q0 51.666 21.167 101.5 21.167 49.833 46.833 77.167 49.334-92 121.667-168.5Q448.667-480.334 534.667-526q-82.001 71-135.834 155.834Q345-285.333 320-180.666Zm0 0Zm0 0Z"/></svg>