<svg xmlns="http://www.w3.org/2000/svg" height="40" viewBox="0 -960 960 960" width="40"><path d="m241.666-388 26.49 241.334H692l28.667-260.001H697q-37.498 0-68.583-5.5-31.084-5.5-85.084-20.833-24.333-7-49-10.334-24.666-3.333-50.333-3.333-54.333 0-105.834 15-51.5 15-96.5 43.667ZM233-460q47.666-25.666 102.166-39.5 54.501-13.833 109.167-13.833 30 0 59.5 4t57.167 12q50.752 14 77.65 19 26.899 5 57.35 5h31.667l37.667-340.001H194.333L233-460Zm35 380q-25.834 0-45-16.62-19.167-16.619-21.667-42.38L120-880h720l-81.333 741q-2.5 25.761-21.667 42.38Q717.834-80 692-80H268Zm0-66.666H691.334 268Z"/></svg>